
<svg viewBox="0 0 36 36" xmlns="http://www.w3.org/2000/svg">
  <path fill="#F36858" d="M36.6034 18C36.5906 25.0727 35.9053 30.0003 33.1687 32.6288C30.5028 35.3138 25.4926 35.9874 18.3015 36C11.1104 35.9874 6.1002 35.3134 3.42764 32.6219C0.697704 29.9999 0.0127979 25.0722 0 17.9996C0.0127979 10.9269 0.698141 5.99928 3.43425 3.37074C6.10063 0.686215 11.1108 0.0125871 18.3019 0C25.493 0.0125871 30.5032 0.686649 33.1758 3.37769C35.9057 5.99971 36.5906 10.9273 36.6034 18Z" />
  <path fill="white" d="M13.2163 26.3194C11.8381 26.3194 10.5447 25.934 9.42638 25.1705C7.59186 23.9183 6.45197 21.7351 6.45197 19.4738C6.45197 17.4012 7.13202 15.4416 8.4736 13.649C9.76354 11.925 11.3505 10.7817 12.4546 10.1263C13.858 9.2934 15.7252 8.73349 17.5769 8.58939C19.6528 8.42793 21.5482 8.80337 22.9132 9.64627C23.5487 10.0386 23.7402 10.8629 23.3417 11.4879C22.9427 12.1129 22.1047 12.3013 21.4692 11.9093C19.5164 10.704 15.8907 11.2079 13.858 12.4141C12.7578 13.0674 9.16822 15.5067 9.16822 19.4738C9.16822 20.8731 9.86062 22.2152 10.9749 22.976C12.1228 23.7595 13.5795 23.8615 15.1881 23.2707C15.6581 23.098 16.1537 22.8684 16.6426 22.591C16.5067 22.223 16.4048 21.8293 16.3381 21.4126C16.1321 20.1222 16.3015 18.9234 16.4798 18.1452C17.1983 15.0084 19.1524 13.8326 20.7711 14.0591C21.591 14.1737 22.2455 14.5752 22.6634 15.2211C23.309 16.218 23.3126 17.6417 22.674 19.7016C22.3095 20.8783 21.5584 22.0311 20.4878 23.0646C21.3951 23.5559 22.5504 23.7512 23.7283 23.5919C25.3523 23.3727 26.821 22.4951 27.6581 21.2442C28.0703 20.6279 28.9128 20.4569 29.5394 20.8627C30.1661 21.2681 30.34 22.0967 29.9273 22.713C28.6471 24.6271 26.5222 25.9123 24.0977 26.2391C21.8942 26.5369 19.7737 26.0056 18.2221 24.7777C17.5517 25.1757 16.8456 25.5143 16.1382 25.7743C15.1444 26.1393 14.1603 26.3203 13.2159 26.3203L13.2163 26.3194ZM20.3748 16.7029C20.1824 16.7029 19.4922 17.1495 19.1298 18.732C18.9842 19.3679 18.9242 20.0819 18.9917 20.7407C19.4886 20.1834 19.8748 19.5697 20.0756 18.9221C20.5337 17.4433 20.4388 16.8639 20.3902 16.7042C20.3898 16.7042 20.3894 16.7042 20.3889 16.7042C20.3845 16.7037 20.3796 16.7033 20.3748 16.7033V16.7029Z" />
  <path fill="#F36858" d="M28.7971 22.8987C29.3165 22.8987 29.7375 22.4846 29.7375 21.9738C29.7375 21.4629 29.3165 21.0488 28.7971 21.0488C28.2777 21.0488 27.8567 21.4629 27.8567 21.9738C27.8567 22.4846 28.2777 22.8987 28.7971 22.8987Z" />
</svg>
