<svg width="160" height="67" viewBox="0 0 160 67" fill="none" xmlns="http://www.w3.org/2000/svg">
<g clip-path="url(#clip0_849_1378)">
<path d="M42.1992 65.666C41.8897 65.666 41.7156 65.6248 41.5388 65.5087C41.2641 65.3262 40.9715 64.8263 40.804 64.5436C40.5209 64.0531 40.2039 63.5307 39.9019 63.0898C39.852 63.0982 39.8106 63.0982 39.7777 63.0982C39.694 63.0982 39.6272 63.0898 39.5425 63.0898V63.5307C39.5425 63.7545 39.5519 63.9801 39.5519 64.2038C39.5604 64.6531 39.5679 64.8432 39.6356 65.0173C39.7194 65.2345 39.8699 65.3412 40.1446 65.3665V65.6005L39.9517 65.5921C39.7354 65.5827 39.4362 65.5921 39.043 65.5921C38.6582 65.5921 38.3562 65.5827 38.1408 65.5921L37.9404 65.6005V65.3665C38.1483 65.3505 38.2481 65.3084 38.3487 65.2008C38.44 65.0931 38.4983 64.9443 38.5162 64.7533C38.5425 64.5043 38.5491 64.3526 38.5491 63.5307V62.135C38.5491 61.1202 38.5162 60.8712 38.4578 60.6391C38.3986 60.4153 38.2245 60.3245 37.9404 60.2908V60.0577C38.106 60.0737 38.2744 60.0652 38.44 60.0652C38.8765 60.0652 39.0082 60.0652 39.5275 60.0409C39.9781 60.024 40.2358 60.0166 40.4362 60.0166C41.0054 60.0166 41.3478 60.0999 41.6319 60.2974C41.948 60.523 42.1578 60.9545 42.1578 61.387C42.1578 62.0676 41.7072 62.6246 40.9386 62.9082C41.2556 63.3061 41.504 63.7049 41.7975 64.1626C42.0656 64.5857 42.3327 64.9518 42.5416 65.1605C42.6582 65.2841 42.7335 65.3262 42.8925 65.3665V65.6005C42.6761 65.6501 42.4588 65.666 42.1992 65.666ZM40.0524 60.4659C39.8859 60.4659 39.7354 60.4902 39.5519 60.5314C39.5519 61.021 39.5425 61.9103 39.5425 62.6002C39.6356 62.6171 39.8022 62.6246 39.9122 62.6246C40.5961 62.6246 41.0552 62.2015 41.0552 61.5527C41.0552 60.9218 40.6291 60.4659 40.0524 60.4659Z" fill="#19213B"/>
<path d="M44.9447 60.5754L44.6202 60.3845L45.3032 59.3809L46.0962 59.5242L44.9447 60.5754ZM46.4838 65.4975C46.4217 65.6014 46.3521 65.6211 45.9739 65.6211C45.7378 65.6211 45.5101 65.6061 45.2759 65.6014C44.9447 65.5949 44.6155 65.5799 44.2824 65.5799C43.9513 65.5799 43.6211 65.5865 43.2881 65.6014V65.4077C43.5995 65.3805 43.7387 65.2017 43.766 64.9012C43.7857 64.6943 43.7857 64.4753 43.7857 64.1186V62.1762C43.7857 61.8111 43.766 61.6473 43.7105 61.5022C43.6484 61.3243 43.5242 61.2429 43.2881 61.2139V61.022H46.5186C46.5186 61.2213 46.5101 61.4264 46.5101 61.6267C46.5101 61.7914 46.5035 61.9487 46.5186 62.1144H46.2693C46.2213 61.5855 45.9937 61.4404 45.1715 61.4404C45.0209 61.4404 44.8206 61.4479 44.6559 61.4554C44.6418 61.7231 44.6333 61.8111 44.6333 62.2099V63.0056C44.7378 63.0121 44.8206 63.0121 44.9447 63.0121C45.6625 63.0121 45.8836 62.9092 45.925 62.5394H46.1724C46.1602 62.6499 46.1602 62.8755 46.1602 63.219C46.1602 63.5673 46.1677 63.7741 46.1724 63.8846H45.925C45.9033 63.4933 45.718 63.3969 45.0068 63.3969C44.8826 63.3969 44.7603 63.4044 44.6333 63.4044C44.6333 63.8359 44.6418 64.2693 44.6418 64.7028C44.6418 64.9902 44.6888 65.0866 44.8554 65.1259C44.9588 65.153 45.1178 65.1605 45.3314 65.1605C46.0764 65.1605 46.3389 64.9958 46.497 64.4332L46.766 64.4884C46.6701 64.9686 46.5609 65.3674 46.4838 65.4975Z" fill="#19213B"/>
<path d="M49.3602 63.5636C49.2916 63.5636 49.2577 63.5636 49.1683 63.5562L49.0159 63.2051C49.6631 63.1639 50.0244 62.8494 50.0244 62.3261C50.0244 61.7785 49.6424 61.3862 49.1194 61.3862C49.0357 61.3862 48.9679 61.3937 48.856 61.4143C48.856 61.8403 48.8428 62.2652 48.8428 62.6902V63.8922C48.8428 64.7918 48.8503 64.9425 48.9181 65.1204C48.9802 65.2992 49.1043 65.3891 49.3386 65.4078V65.6016L49.173 65.595C48.9943 65.5866 48.7459 65.5866 48.4148 65.5866C48.0912 65.5866 47.8353 65.5866 47.6641 65.595L47.4976 65.6016V65.4078C47.808 65.3806 47.9463 65.2028 47.9745 64.9023C47.9952 64.6954 47.9952 64.5709 47.9952 63.8922V62.1773C47.9952 61.8122 47.9745 61.6483 47.919 61.5032C47.856 61.3254 47.7327 61.243 47.4976 61.2149V61.023C47.5813 61.0305 47.5183 61.0305 47.8146 61.0305C47.9312 61.0305 48.0978 61.0305 48.3179 61.023C48.6707 61.009 49.0225 60.9874 49.3734 60.9874C50.3536 60.9874 50.9397 61.4677 50.9397 62.2652C50.9397 63.0123 50.2699 63.5636 49.3602 63.5636Z" fill="#19213B"/>
<path d="M55.6307 61.3653C55.5536 61.4673 55.5187 61.6059 55.5046 61.8802C55.4915 62.1769 55.4839 62.4016 55.4839 62.8275C55.4839 62.9848 55.4915 63.4603 55.4915 63.934C55.4915 64.4142 55.4153 64.7025 55.2158 64.9909C54.8979 65.4496 54.3748 65.6836 53.6843 65.6836C53.2497 65.6836 52.9185 65.6012 52.609 65.3943C52.1264 65.0864 51.9383 64.681 51.9383 63.9536C51.9383 63.2122 51.9515 62.8902 51.9515 62.6496C51.9515 62.2986 51.974 61.9354 51.9119 61.5928C51.8696 61.3447 51.7388 61.2427 51.4491 61.2146V61.0227L51.6071 61.0302C51.7868 61.0367 52.0427 61.0367 52.3738 61.0367C52.705 61.0367 52.959 61.0367 53.1387 61.0302L53.2986 61.0227V61.2146C53.0832 61.2427 52.9806 61.2979 52.9119 61.414C52.8499 61.5169 52.8216 61.6527 52.816 61.956C52.8019 62.3875 52.7944 62.8144 52.7944 63.2459C52.7944 64.4255 52.8216 64.6539 53.0361 64.9019C53.2008 65.0929 53.483 65.224 53.8151 65.224C54.277 65.224 54.7266 64.9909 54.864 64.5312C54.9543 64.2345 54.9675 64.022 54.9675 63.2459V62.5663C54.9675 61.7847 54.9458 61.5441 54.8706 61.4271C54.7953 61.3035 54.6909 61.2342 54.5112 61.2146V61.0227C54.7887 61.0367 54.8837 61.0367 55.2299 61.0367C55.5808 61.0367 55.6777 61.0367 55.9534 61.0227V61.2146C55.8019 61.2342 55.705 61.2764 55.6307 61.3653Z" fill="#19213B"/>
<path d="M59.8713 65.2778C59.5477 65.524 59.1817 65.6055 58.4781 65.6055C58.1046 65.6055 57.7255 65.5793 57.3539 65.5793C57.2015 65.5793 56.9183 65.5793 56.7254 65.5942L56.6417 65.6008V65.407C56.9672 65.3799 57.0923 65.2142 57.1187 64.9006C57.1394 64.6937 57.146 64.5701 57.146 63.8905V62.594C57.146 61.9546 57.1394 61.6803 57.0716 61.5015C57.0011 61.3237 56.8778 61.2422 56.6417 61.2132V61.0213C56.9606 61.0354 57.146 61.0354 57.5881 61.0354C57.9879 61.0354 58.5891 61.0138 58.987 61.0138C59.622 61.0138 60.2024 61.3171 60.2024 62.0314C60.2024 62.5584 59.8713 62.9151 59.2175 63.0808C59.9475 63.2249 60.3323 63.6434 60.3323 64.3239C60.3323 64.7339 60.1827 65.0438 59.8713 65.2778ZM58.367 61.377C58.2419 61.377 58.1177 61.3929 57.9955 61.3929C57.9879 61.8395 57.9748 62.6071 57.9682 62.8963C58.0434 62.902 58.1394 62.9085 58.2692 62.9085C58.9465 62.9085 59.3332 62.6277 59.3332 62.1334C59.3332 61.6588 58.9748 61.377 58.367 61.377ZM58.3887 63.2933C58.2692 63.2933 58.146 63.2998 57.9682 63.3129C57.9606 63.5001 57.9606 63.5338 57.9606 63.8503V64.2537C57.9606 64.6385 57.9748 64.8453 58.0227 64.982C58.0773 65.1524 58.2419 65.2376 58.5336 65.2376C59.1196 65.2376 59.4508 64.9127 59.4508 64.337C59.4508 63.6977 59.0359 63.2933 58.3887 63.2933Z" fill="#19213B"/>
<path d="M64.2301 65.5041C64.1671 65.6005 64.0843 65.6211 63.74 65.6211C63.5678 65.6211 63.3881 65.6145 63.215 65.6061C62.7879 65.5939 62.4013 65.579 61.9328 65.579C61.581 65.579 61.3467 65.5855 61.1266 65.6005V65.4067C61.2978 65.3936 61.3872 65.3599 61.4643 65.271C61.5866 65.1259 61.6224 64.948 61.6224 64.4481C61.6224 64.1036 61.6289 63.8294 61.6289 63.4727V62.7379C61.6289 61.8111 61.6224 61.6866 61.5537 61.5022C61.4916 61.3234 61.3608 61.2419 61.1266 61.2139V61.022L61.2978 61.0294C61.4831 61.036 61.74 61.036 62.0833 61.036C62.421 61.036 62.6845 61.036 62.8632 61.0294L63.0363 61.022V61.2139C62.6845 61.2139 62.5339 61.3992 62.4916 61.7287C62.4784 61.8448 62.47 61.9553 62.47 62.7379V63.8846C62.47 64.8376 62.4784 64.9546 62.5669 65.0501C62.6431 65.1259 62.7879 65.1605 63.0852 65.1605C63.4653 65.1605 63.6713 65.1193 63.8435 65.0229C64.0372 64.9199 64.1802 64.7149 64.2517 64.4247L64.5123 64.4949C64.4371 64.8928 64.3044 65.388 64.2301 65.5041Z" fill="#19213B"/>
<path d="M66.6283 65.595C66.457 65.5866 66.2021 65.5866 65.8775 65.5866C65.5455 65.5866 65.299 65.5866 65.1184 65.595L64.9537 65.6016V65.4078C65.2755 65.3806 65.4025 65.2149 65.4279 64.9023C65.4495 64.6954 65.4561 64.5709 65.4561 63.8922V62.7389C65.4561 62.5601 65.4495 62.3757 65.4495 62.1763C65.4495 61.8122 65.4363 61.6474 65.379 61.5023C65.3187 61.3244 65.187 61.243 64.9537 61.214V61.0221L65.1184 61.0305C65.299 61.0371 65.5455 61.0371 65.8775 61.0371C66.2021 61.0371 66.457 61.0371 66.6283 61.0305L66.7948 61.0221V61.214C66.4966 61.2346 66.346 61.4209 66.3178 61.7298C66.2971 61.9292 66.2971 62.1201 66.2971 62.7389V63.8922C66.2971 64.7918 66.3046 64.9425 66.3743 65.1204C66.4345 65.2992 66.5605 65.3891 66.7948 65.4078V65.6016L66.6283 65.595Z" fill="#19213B"/>
<path d="M73.0783 66.8359C72.5393 66.8359 71.9673 66.6702 71.4217 66.3688C71.1122 66.1984 70.6776 65.9008 70.3596 65.6415C70.1253 65.6761 70.0369 65.6826 69.813 65.6826C68.4226 65.6826 67.496 64.7784 67.496 63.4107C67.496 61.9485 68.4969 60.9403 69.9588 60.9403C71.3822 60.9403 72.3248 61.8446 72.3248 63.2038C72.3248 64.1736 71.829 65.0311 71.0426 65.429C71.2919 65.5525 71.5383 65.6892 71.781 65.8352C72.4838 66.2593 72.9673 66.4381 73.4226 66.4381C73.7058 66.4381 73.94 66.3763 74.2166 66.2387L74.306 66.4793C73.9673 66.7124 73.5478 66.8359 73.0783 66.8359ZM69.8196 61.4065C68.9814 61.4065 68.3793 62.1057 68.3793 63.0877C68.3793 64.2822 69.0915 65.223 69.9946 65.223C70.8422 65.223 71.4424 64.5097 71.4424 63.5127C71.4424 62.3332 70.7331 61.4065 69.8196 61.4065Z" fill="#19213B"/>
<path d="M77.1057 61.3653C77.0295 61.4673 76.9966 61.6059 76.9815 61.8802C76.9674 62.1769 76.9608 62.4016 76.9608 62.8275C76.9608 62.9848 76.9674 63.4603 76.9674 63.934C76.9674 64.4142 76.8903 64.7025 76.6908 64.9909C76.3747 65.4496 75.8498 65.6836 75.1621 65.6836C74.7256 65.6836 74.3954 65.6012 74.084 65.3943C73.6014 65.0864 73.4161 64.681 73.4161 63.9536C73.4161 63.2122 73.4302 62.8902 73.4302 62.6496C73.4302 62.2986 73.45 61.9354 73.387 61.5928C73.3474 61.3447 73.2148 61.2427 72.925 61.2146V61.0227L73.0831 61.0302C73.2637 61.0367 73.5196 61.0367 73.8507 61.0367C74.18 61.0367 74.4368 61.0367 74.6156 61.0302L74.7745 61.0227V61.2146C74.5591 61.2427 74.4575 61.2979 74.3888 61.414C74.3249 61.5169 74.2985 61.6527 74.2919 61.956C74.2778 62.3875 74.2694 62.8144 74.2694 63.2459C74.2694 64.4255 74.2985 64.6539 74.5111 64.9019C74.6777 65.0929 74.9589 65.224 75.292 65.224C75.7539 65.224 76.2017 64.9909 76.3409 64.5312C76.4293 64.2345 76.4434 64.022 76.4434 63.2459V62.5663C76.4434 61.7847 76.4237 61.5441 76.3475 61.4271C76.2713 61.3035 76.1678 61.2342 75.989 61.2146V61.0227C76.2647 61.0367 76.3616 61.0367 76.7068 61.0367C77.0558 61.0367 77.1537 61.0367 77.4303 61.0227V61.2146C77.2779 61.2342 77.1819 61.2764 77.1057 61.3653Z" fill="#19213B"/>
<path d="M81.3134 65.4966C81.2504 65.6005 81.1817 65.6211 80.8035 65.6211C80.5665 65.6211 80.3407 65.6061 80.1074 65.6005C79.7744 65.5939 79.4432 65.579 79.1102 65.579C78.7828 65.579 78.4507 65.5855 78.1187 65.6005V65.4067C78.4291 65.3796 78.5674 65.2008 78.5956 64.9012C78.6163 64.6943 78.6163 64.4744 78.6163 64.1177V62.1753C78.6163 61.8111 78.5956 61.6463 78.5392 61.5012C78.478 61.3234 78.3538 61.2419 78.1187 61.2129V61.021H81.3482C81.3482 61.2204 81.3398 61.4264 81.3398 61.6267C81.3398 61.7905 81.3332 61.9478 81.3482 62.1135H81.0999C81.0491 61.5846 80.8223 61.4395 80.003 61.4395C79.8515 61.4395 79.6511 61.4479 79.4856 61.4544C79.4705 61.7222 79.4649 61.8111 79.4649 62.209V63.0056C79.5683 63.0112 79.6511 63.0112 79.7744 63.0112C80.4931 63.0112 80.7113 62.9082 80.7537 62.5385H81.003C80.9898 62.6489 80.9898 62.8755 80.9898 63.2181C80.9898 63.5663 80.9954 63.7741 81.003 63.8837H80.7537C80.7349 63.4924 80.5467 63.3969 79.8364 63.3969C79.7142 63.3969 79.5881 63.4034 79.4649 63.4034C79.4649 63.835 79.4705 64.2684 79.4705 64.7018C79.4705 64.9892 79.5204 65.0856 79.685 65.1259C79.7875 65.1521 79.9493 65.1605 80.1601 65.1605C80.9061 65.1605 81.1685 64.9948 81.3266 64.4322L81.5956 64.4875C81.5006 64.9677 81.3887 65.3665 81.3134 65.4966Z" fill="#19213B"/>
<path d="M87.6955 61.3965C87.687 60.7984 87.3352 60.5662 86.3935 60.5662C86.2016 60.5662 86.0191 60.5746 85.8093 60.5905C85.7905 61.1644 85.7905 61.5622 85.7905 62.4684C85.9937 62.4768 86.0934 62.4852 86.2355 62.4852C87.0116 62.4852 87.2449 62.3532 87.2872 61.9039H87.5873C87.5873 62.1361 87.5713 62.3776 87.5713 62.6097C87.5713 62.9168 87.5873 63.2341 87.5873 63.5393H87.2872C87.2289 63.0432 87.037 62.9421 86.1602 62.9421C86.0097 62.9421 85.9504 62.9421 85.7905 62.9505V63.8819C85.7905 64.0645 85.7905 64.2629 85.8018 64.4782C85.8159 64.936 85.8507 65.3357 86.3935 65.3685V65.6016L86.1941 65.5941C85.9833 65.5838 85.6757 65.5838 85.2815 65.5838C84.8817 65.5838 84.5807 65.5838 84.3643 65.5941L84.1639 65.6016V65.3685C84.5384 65.3357 84.7067 65.1195 84.7397 64.7544C84.7641 64.5054 84.7641 64.3547 84.7641 63.5327V61.4555C84.7641 61.0146 84.7397 60.8152 84.6738 60.6402C84.5976 60.4239 84.448 60.3256 84.1639 60.2919V60.0588H88.004C87.989 60.217 87.989 60.4829 87.989 60.8321C87.989 61.1644 87.989 61.2131 88.004 61.3965H87.6955Z" fill="#19213B"/>
<path d="M92.315 65.6543C92.0581 65.6543 91.9133 65.6206 91.7693 65.5232C91.5417 65.3735 91.2999 64.9616 91.1616 64.7285C90.9264 64.3231 90.6658 63.8907 90.4175 63.5274C90.3752 63.534 90.3404 63.534 90.3131 63.534C90.2425 63.534 90.1889 63.5274 90.1193 63.5274V63.8907C90.1193 64.0769 90.1277 64.2604 90.1277 64.4476C90.1334 64.8174 90.1409 64.9756 90.1964 65.1188C90.267 65.2976 90.3883 65.3875 90.6169 65.4072V65.6L90.4589 65.5934C90.2792 65.585 90.029 65.5934 89.7054 65.5934C89.3893 65.5934 89.1409 65.585 88.9612 65.5934L88.7957 65.6V65.4072C88.9678 65.3931 89.0497 65.3594 89.1343 65.2705C89.2096 65.1825 89.2585 65.0571 89.2707 64.9007C89.2933 64.6938 89.2999 64.5703 89.2999 63.8907V62.7383C89.2999 61.8995 89.2707 61.6955 89.2228 61.5017C89.1748 61.3173 89.0318 61.2424 88.7957 61.2134V61.0215C88.9339 61.0355 89.0722 61.0289 89.2096 61.0289C89.5671 61.0289 89.679 61.0289 90.1061 61.0074C90.4805 60.9943 90.6922 60.9859 90.8578 60.9859C91.3272 60.9859 91.6104 61.0561 91.8455 61.2199C92.1071 61.4053 92.2792 61.7619 92.2792 62.1186C92.2792 62.6831 91.9067 63.1427 91.2726 63.3758C91.5351 63.7044 91.7421 64.0348 91.9829 64.413C92.203 64.7622 92.425 65.0655 92.5963 65.2368C92.6941 65.3388 92.7543 65.3735 92.8869 65.4072V65.6C92.7073 65.6403 92.5276 65.6543 92.315 65.6543ZM90.5417 61.3575C90.4034 61.3575 90.2792 61.3772 90.1277 61.4128C90.1277 61.8172 90.1193 62.552 90.1193 63.1212C90.1964 63.1361 90.3338 63.1427 90.4222 63.1427C90.9885 63.1427 91.3686 62.7926 91.3686 62.2562C91.3686 61.7357 91.0158 61.3575 90.5417 61.3575Z" fill="#19213B"/>
<path d="M97.2916 65.595C97.1195 65.5866 96.872 65.5866 96.555 65.5866C96.2286 65.5866 95.9821 65.5866 95.81 65.595L95.65 65.6016V65.4078C95.8702 65.3947 96.0028 65.2786 96.0028 65.0867C96.0028 65.0174 95.9821 64.921 95.9125 64.716C95.8297 64.4623 95.7742 64.2882 95.6924 64.057H94.3669L94.2295 64.4539C94.126 64.7637 94.0696 64.9903 94.0696 65.1064C94.0696 65.3057 94.1608 65.3947 94.381 65.4078V65.6016C94.1194 65.595 94.0244 65.5866 93.6914 65.5866C93.3687 65.5866 93.2709 65.595 93.0084 65.6016V65.4078C93.111 65.3947 93.1458 65.3806 93.222 65.3123C93.3537 65.1972 93.4844 64.9556 93.6914 64.4333L94.3471 62.7726C94.5268 62.3261 94.794 61.6062 94.9802 61.0221H95.4496C95.5136 61.2346 95.6576 61.5706 95.7526 61.8187L96.7262 64.2966C96.8918 64.716 97.0094 64.9622 97.0978 65.1204C97.1957 65.2852 97.2916 65.3675 97.4581 65.4078V65.6016L97.2916 65.595ZM95.0564 62.2306C94.8786 62.6987 94.6293 63.3015 94.5268 63.6376H95.5475L95.0564 62.2306Z" fill="#19213B"/>
<path d="M102.203 61.4209C102.126 61.5444 102.113 61.6596 102.099 62.019C102.078 62.635 102.072 63.5973 102.072 64.0579V65.1064C102.072 65.2655 102.094 65.5051 102.094 65.6016H101.623C101.175 65.0184 100.243 63.8857 100.243 63.8857C100.135 63.7481 99.2707 62.6902 98.837 62.1623C98.837 62.3074 98.8285 62.2184 98.8285 62.664V63.1087C98.8285 63.6245 98.837 64.1328 98.8558 64.6467C98.8709 64.936 98.8981 65.0801 98.9678 65.2103C99.0355 65.346 99.138 65.4031 99.3384 65.4078V65.6016C99.0976 65.5866 98.8492 65.5866 98.6084 65.5866C98.36 65.5866 98.1173 65.5866 97.8708 65.6016V65.4078C98.3262 65.3947 98.3403 65.0184 98.3544 64.6598C98.36 64.3724 98.3666 64.1328 98.3666 63.6928V62.2437C98.3666 61.6755 98.3403 61.5379 98.2349 61.3862C98.1672 61.2767 98.0759 61.2346 97.8708 61.2149V61.023C98.0985 61.0371 98.1794 61.0371 98.471 61.0371C98.7533 61.0371 98.837 61.0371 99.0656 61.023C99.1456 61.1728 99.2773 61.3104 99.7542 61.8871C100.431 62.7062 101.036 63.3979 101.609 64.1113V62.6135C101.609 61.9292 101.596 61.7569 101.56 61.58C101.513 61.3591 101.383 61.2505 101.127 61.2149V61.023C101.41 61.0371 101.505 61.0371 101.859 61.0371C102.209 61.0371 102.306 61.0371 102.589 61.023V61.2149C102.401 61.2215 102.299 61.257 102.203 61.4209Z" fill="#19213B"/>
<path d="M107.017 65.4358C106.566 65.6155 106.173 65.6838 105.629 65.6838L105.566 65.9581C105.602 65.9497 105.671 65.9581 105.697 65.9581C105.961 65.9581 106.133 66.1416 106.133 66.3691C106.133 66.7407 105.836 67 105.367 67C105.229 67 105.105 66.9738 104.953 66.912L105.049 66.6443C105.139 66.6789 105.221 66.6986 105.3 66.6986C105.492 66.6986 105.624 66.6022 105.624 66.4299C105.624 66.2942 105.553 66.2118 105.45 66.2118C105.396 66.2118 105.347 66.2324 105.3 66.2661L105.148 66.2258L105.284 65.6698C104.677 65.6155 104.236 65.4152 103.863 65.0313C103.438 64.5989 103.208 64.0082 103.208 63.3145C103.208 61.8317 104.166 60.9405 105.748 60.9405C106.224 60.9405 106.686 61.0089 107.085 61.139C107.072 61.2972 107.072 61.4554 107.072 61.6052C107.072 61.7231 107.079 61.9702 107.085 62.1275H106.817C106.705 61.6407 106.312 61.3786 105.684 61.3786C104.712 61.3786 104.119 62.0236 104.119 63.0955C104.119 64.3302 104.817 65.2317 105.774 65.2317C106.354 65.2317 106.748 64.9424 106.905 64.392L107.167 64.4481C107.106 64.6812 107.044 65.0725 107.017 65.4358Z" fill="#19213B"/>
<path d="M111.803 65.595C111.629 65.5866 111.383 65.5866 111.065 65.5866C110.739 65.5866 110.492 65.5866 110.32 65.595L110.161 65.6016V65.4078C110.383 65.3947 110.512 65.2786 110.512 65.0867C110.512 65.0174 110.492 64.921 110.424 64.716C110.34 64.4623 110.285 64.2882 110.202 64.057H108.877L108.741 64.4539C108.638 64.7637 108.582 64.9903 108.582 65.1064C108.582 65.3057 108.67 65.3947 108.892 65.4078V65.6016C108.628 65.595 108.533 65.5866 108.201 65.5866C107.878 65.5866 107.781 65.595 107.518 65.6016V65.4078C107.622 65.3947 107.657 65.3806 107.731 65.3123C107.865 65.1972 107.993 64.9556 108.201 64.4333L108.856 62.7726C109.037 62.3261 109.305 61.6062 109.492 61.0221H109.959C110.024 61.2346 110.167 61.5706 110.264 61.8187L111.237 64.2966C111.401 64.716 111.519 64.9622 111.609 65.1204C111.707 65.2852 111.803 65.3675 111.968 65.4078V65.6016L111.803 65.595ZM109.569 62.2306C109.387 62.6987 109.14 63.3015 109.037 63.6376H110.058L109.569 62.2306Z" fill="#19213B"/>
<path d="M114.058 65.595C113.885 65.5866 113.628 65.5866 113.305 65.5866C112.974 65.5866 112.727 65.5866 112.545 65.595L112.381 65.6016V65.4078C112.706 65.3806 112.829 65.2149 112.856 64.9023C112.877 64.6954 112.884 64.5709 112.884 63.8922V62.7389C112.884 62.5601 112.877 62.3757 112.877 62.1763C112.877 61.8122 112.863 61.6474 112.808 61.5023C112.747 61.3244 112.616 61.243 112.381 61.214V61.0221L112.545 61.0305C112.727 61.0371 112.974 61.0371 113.305 61.0371C113.628 61.0371 113.885 61.0371 114.058 61.0305L114.223 61.0221V61.214C113.926 61.2346 113.774 61.4209 113.746 61.7298C113.727 61.9292 113.727 62.1201 113.727 62.7389V63.8922C113.727 64.7918 113.734 64.9425 113.801 65.1204C113.864 65.2992 113.988 65.3891 114.223 65.4078V65.6016L114.058 65.595Z" fill="#19213B"/>
<path d="M116.201 65.6836C115.801 65.6836 115.511 65.6284 115.043 65.4496C115.022 65.1884 114.972 64.7915 114.917 64.462L115.18 64.4208C115.347 64.9759 115.712 65.2651 116.242 65.2651C116.732 65.2651 117.064 65.0105 117.064 64.6258C117.064 64.3178 116.85 64.1044 116.538 63.9134L115.814 63.4528C115.317 63.1374 115.029 62.806 115.029 62.2031C115.029 61.4346 115.616 60.9403 116.524 60.9403C116.968 60.9403 117.331 61.0227 117.657 61.1865C117.65 61.3512 117.65 61.4065 117.65 61.6199C117.65 61.867 117.65 61.9354 117.657 62.1282H117.395C117.299 61.634 116.989 61.3587 116.51 61.3587C116.083 61.3587 115.774 61.6274 115.774 62.0047C115.774 62.3332 116 62.5532 116.365 62.7863L116.953 63.1636C117.512 63.5287 117.83 63.8788 117.83 64.4255C117.83 65.1753 117.166 65.6836 116.201 65.6836Z" fill="#19213B"/>
<path d="M121.747 65.4966C121.685 65.6005 121.615 65.6211 121.239 65.6211C121.001 65.6211 120.775 65.6061 120.54 65.6005C120.207 65.5939 119.88 65.579 119.545 65.579C119.214 65.579 118.883 65.5855 118.555 65.6005V65.4067C118.864 65.3796 119.003 65.2008 119.028 64.9012C119.05 64.6943 119.05 64.4744 119.05 64.1177V62.1753C119.05 61.8111 119.028 61.6463 118.974 61.5012C118.913 61.3234 118.787 61.2419 118.555 61.2129V61.021H121.781C121.781 61.2204 121.774 61.4264 121.774 61.6267C121.774 61.7905 121.768 61.9478 121.781 62.1135H121.533C121.486 61.5846 121.257 61.4395 120.435 61.4395C120.285 61.4395 120.085 61.4479 119.92 61.4544C119.906 61.7222 119.898 61.8111 119.898 62.209V63.0056C120.002 63.0112 120.085 63.0112 120.207 63.0112C120.926 63.0112 121.146 62.9082 121.188 62.5385H121.437C121.424 62.6489 121.424 62.8755 121.424 63.2181C121.424 63.5663 121.431 63.7741 121.437 63.8837H121.188C121.168 63.4924 120.982 63.3969 120.271 63.3969C120.147 63.3969 120.021 63.4034 119.898 63.4034C119.898 63.835 119.906 64.2684 119.906 64.7018C119.906 64.9892 119.953 65.0856 120.12 65.1259C120.222 65.1521 120.381 65.1605 120.596 65.1605C121.341 65.1605 121.604 64.9948 121.761 64.4322L122.031 64.4875C121.935 64.9677 121.824 65.3665 121.747 65.4966Z" fill="#19213B"/>
<path d="M34.1909 64.2812H0.0184326V62.1656H34.1909V64.2812Z" fill="#164194"/>
<path d="M160 64.2812H125.828V62.1656H160V64.2812Z" fill="#E30613"/>
<path d="M0 54.304V41.2611C0 40.9812 0.200378 40.7809 0.461904 40.7809H4.83729C7.90881 40.7809 10.2371 42.9986 10.2371 46.3948V49.1311C10.2371 52.5264 7.90881 54.7637 4.85799 54.7637H0.461904C0.200378 54.7637 0 54.5643 0 54.304ZM2.14771 52.7257H4.85799C6.58425 52.7257 8.04993 51.4479 8.04993 49.1311V46.4341C8.04993 44.1172 6.58425 42.8188 4.83729 42.8188H2.14771V52.7257Z" fill="#19213B"/>
<path d="M16.0158 53.1263C16.7185 53.1263 17.4608 52.9868 17.9829 51.9281C18.0629 51.8279 18.1842 51.6482 18.4646 51.6482H19.7496C19.95 51.6482 20.0704 51.7886 20.0704 51.9683C20.0704 52.0676 20.0309 52.208 19.9904 52.3081C19.2473 54.245 17.5012 54.9648 16.0158 54.9648C13.6075 54.9648 11.6799 53.2265 11.6799 50.4303V49.1319C11.6799 46.3348 13.5868 44.5777 15.9961 44.5777C18.3846 44.5777 20.2708 46.3956 20.2708 49.0711V50.0109C20.2708 50.2702 20.0507 50.4696 19.7901 50.4696H13.8276V50.7495C13.8276 52.1874 14.7712 53.1263 16.0158 53.1263ZM18.1635 48.7322C18.1635 47.2737 17.2407 46.4153 15.9961 46.4153C14.7515 46.4153 13.8276 47.2737 13.8276 48.7322V48.9522H18.1635V48.7322ZM16.5784 45.3959C16.5784 45.4558 16.5577 45.5363 16.4975 45.5953L17.0591 43.459C16.9594 43.5985 16.839 43.6584 16.6988 43.6584H15.4137C15.2529 43.6584 15.1927 43.5789 15.1927 43.459C15.1927 43.3991 15.2726 43.2587 15.2933 43.1988L16.3968 41.0813C16.5172 40.8426 16.7185 40.7817 16.8794 40.7817H18.4853C18.6057 40.7817 18.7261 40.8623 18.7261 41.0017" fill="#19213B"/>
<path d="M26.6526 46.6738H24.6657V54.304C24.6657 54.5643 24.4446 54.7637 24.1831 54.7637H22.9592C22.6986 54.7637 22.4973 54.5643 22.4973 54.304V46.6738H21.1125C20.851 46.6738 20.6506 46.4744 20.6506 46.2141V45.2555C20.6506 44.9756 20.851 44.7762 21.1125 44.7762H22.4973V44.3569C22.4973 41.7198 23.5011 40.7809 26.01 40.7809H26.6526C26.9132 40.7809 27.1145 40.9812 27.1145 41.2611V42.2394C27.1145 42.4987 26.9132 42.699 26.6526 42.699H26.01C24.8859 42.699 24.6657 43.0182 24.6657 44.3372V44.7762H26.6526C26.9132 44.7762 27.1145 44.9756 27.1145 45.2555V46.2141C27.1145 46.4744 26.9132 46.6738 26.6526 46.6738Z" fill="#19213B"/>
<path d="M32.2916 53.1263C32.9943 53.1263 33.7365 52.9868 34.2587 51.9281C34.3386 51.8279 34.46 51.6482 34.7403 51.6482H36.0254C36.2257 51.6482 36.3462 51.7886 36.3462 51.9683C36.3462 52.0676 36.3067 52.208 36.2662 52.3081C35.523 54.245 33.777 54.9648 32.2916 54.9648C29.8833 54.9648 27.9557 53.2265 27.9557 50.4303V49.1319C27.9557 46.3348 29.8626 44.5777 32.2718 44.5777C34.6604 44.5777 36.5465 46.3956 36.5465 49.0711V50.0109C36.5465 50.2702 36.3264 50.4696 36.0658 50.4696H30.1034V50.7495C30.1034 52.1874 31.047 53.1263 32.2916 53.1263ZM34.4393 48.7322C34.4393 47.2737 33.5164 46.4153 32.2718 46.4153C31.0272 46.4153 30.1034 47.2737 30.1034 48.7322V48.9522H34.4393V48.7322Z" fill="#19213B"/>
<path d="M38.2711 54.304V45.2555C38.2711 44.9756 38.4724 44.7762 38.733 44.7762H39.9579C40.2185 44.7762 40.4188 44.9756 40.4188 45.2555V45.9146C40.9607 45.1357 41.7641 44.5769 43.1893 44.5769C45.6578 44.5769 46.8422 46.4145 46.8422 49.1311V54.304C46.8422 54.5643 46.6418 54.7637 46.3812 54.7637H45.1564C44.8958 54.7637 44.6945 54.5643 44.6945 54.304V48.8708C44.6945 47.2729 43.7914 46.4145 42.5468 46.4145C41.3022 46.4145 40.4188 47.2729 40.4188 48.8708V54.304C40.4188 54.5643 40.2185 54.7637 39.9579 54.7637H38.733C38.4724 54.7637 38.2711 54.5643 38.2711 54.304Z" fill="#19213B"/>
<path d="M48.4258 52.1883C48.406 52.1088 48.3863 51.9889 48.406 51.9094C48.406 51.709 48.5462 51.5892 48.7466 51.5892H49.9912C50.2122 51.5892 50.3129 51.709 50.3731 51.8888C50.5133 52.428 50.9554 53.2265 52.4004 53.2265C53.5443 53.2265 54.2678 52.8679 54.2678 51.9693C54.2678 49.8911 48.5669 51.5696 48.5669 47.4946C48.5669 45.4371 50.3524 44.5786 52.3599 44.5786C54.8294 44.5786 55.7927 46.0764 56.1135 47.2344C56.1342 47.2943 56.154 47.4141 56.154 47.5143C56.1342 47.7137 55.9931 47.8541 55.7927 47.8541H54.5481C54.3073 47.8541 54.2471 47.7539 54.1671 47.534C53.9658 46.9751 53.6252 46.3161 52.28 46.3161C51.4164 46.3161 50.6337 46.5754 50.6337 47.3945C50.6337 49.5915 56.3148 47.914 56.3148 51.9094C56.3148 54.1663 54.4681 54.9648 52.3806 54.9648C49.931 54.9648 48.6468 53.527 48.4258 52.1883Z" fill="#19213B"/>
<path d="M61.9131 53.1263C62.6159 53.1263 63.3581 52.9868 63.8802 51.9281C63.9611 51.8279 64.0816 51.6482 64.3619 51.6482H65.647C65.8473 51.6482 65.9677 51.7886 65.9677 51.9683C65.9677 52.0676 65.9282 52.208 65.8878 52.3081C65.1446 54.245 63.3986 54.9648 61.9131 54.9648C59.5048 54.9648 57.5773 53.2265 57.5773 50.4303V49.1319C57.5773 46.3348 59.4842 44.5777 61.8934 44.5777C64.2819 44.5777 66.1681 46.3956 66.1681 49.0711V50.0109C66.1681 50.2702 65.948 50.4696 65.6874 50.4696H59.725V50.7495C59.725 52.1874 60.6685 53.1263 61.9131 53.1263ZM64.0609 48.7322C64.0609 47.2737 63.138 46.4153 61.8934 46.4153C60.6488 46.4153 59.725 47.2737 59.725 48.7322V48.9522H64.0609V48.7322Z" fill="#19213B"/>
<path d="M76.123 45.2564V54.3049C76.123 54.5651 75.9217 54.7645 75.6611 54.7645H74.4362C74.1757 54.7645 73.9753 54.5651 73.9753 54.3049V53.6861C73.4729 54.3854 72.7307 54.9648 71.2857 54.9648C68.9367 54.9648 67.7927 53.2265 67.7927 50.4303V45.2564C67.7927 44.9765 67.9931 44.7771 68.2537 44.7771H69.4785C69.7391 44.7771 69.9404 44.9765 69.9404 45.2564V50.669C69.9404 52.2679 70.7034 53.1263 71.9273 53.1263C73.1521 53.1263 73.9753 52.2679 73.9753 50.669V45.2564C73.9753 44.9765 74.1757 44.7771 74.4362 44.7771H75.6611C75.9217 44.7771 76.123 44.9765 76.123 45.2564Z" fill="#19213B"/>
<path d="M78.3082 54.304V45.2555C78.3082 44.9756 78.5095 44.7762 78.7701 44.7762H79.8746C80.1351 44.7762 80.3562 44.9756 80.3562 45.2555V46.275C80.8379 45.4353 81.7212 44.7762 83.0251 44.7762H83.2866C83.5482 44.7762 83.7485 44.9756 83.7485 45.2555V46.4538C83.7485 46.714 83.5482 46.9134 83.2866 46.9134H82.9856C81.3195 46.9134 80.4362 47.9122 80.4362 49.7901V54.304C80.4362 54.5643 80.2349 54.7637 79.9545 54.7637H78.7701C78.5095 54.7637 78.3082 54.5643 78.3082 54.304Z" fill="#19213B"/>
<path d="M92.0571 54.5455V53.3669C91.5557 54.2459 90.5312 54.9648 89.1069 54.9648C86.8783 54.9648 85.1925 53.4277 85.1925 50.6306V48.9325C85.1925 46.1363 86.8783 44.5786 89.1069 44.5786C90.5519 44.5786 91.5961 45.3172 92.0571 46.1766V41.0223C92.0571 40.8828 92.138 40.7827 92.2782 40.7827H92.7993C92.9405 40.7827 93.0411 40.8828 93.0411 41.0223V54.5455C93.0411 54.6859 92.9405 54.7655 92.7993 54.7655H92.2782C92.138 54.7655 92.0571 54.6859 92.0571 54.5455ZM92.0571 50.5904V48.793C92.0571 46.6755 90.772 45.5176 89.1069 45.5176C87.36 45.5176 86.1756 46.7354 86.1756 48.9531V50.5904C86.1756 52.8277 87.3807 54.0269 89.0862 54.0269C90.8125 54.0269 92.0571 52.808 92.0571 50.5904Z" fill="#19213B"/>
<path d="M99.4218 54.0259C100.204 54.0259 101.61 53.8658 102.252 51.9281C102.292 51.8092 102.332 51.7483 102.453 51.7483H103.076C103.155 51.7483 103.216 51.8092 103.216 51.8878C103.216 51.9477 103.195 52.0086 103.155 52.1481C102.573 54.3451 100.686 54.9648 99.4218 54.9648C97.1536 54.9648 95.4471 53.4268 95.4471 50.6297V48.9325C95.4471 46.1354 97.133 44.5777 99.3813 44.5777C101.63 44.5777 103.316 46.1354 103.316 48.9325V49.9707C103.316 50.1111 103.216 50.1906 103.076 50.1906H96.4302V50.7299C96.4302 52.8268 97.7153 54.0259 99.4218 54.0259ZM102.332 48.9119C102.332 46.7345 101.108 45.5166 99.3813 45.5166C97.6748 45.5166 96.4302 46.7345 96.4302 48.9119V49.2517H102.332V48.9119Z" fill="#19213B"/>
<path d="M105.12 52.3081C105.12 52.2679 105.12 52.208 105.16 52.1677C105.201 52.1088 105.24 52.0685 105.341 52.0685H105.862C106.024 52.0685 106.064 52.1088 106.104 52.2482C106.325 53.1666 107.188 54.0259 108.773 54.0259C110.159 54.0259 111.403 53.5869 111.403 52.1481C111.403 49.1319 105.281 51.5293 105.281 47.2147C105.281 45.2564 107.147 44.5777 108.573 44.5777C112.186 44.5777 112.106 47.2147 112.106 47.2147V47.2541C112.085 47.3739 111.965 47.4338 111.885 47.4338H111.343C111.202 47.4338 111.142 47.3739 111.122 47.2147C111.022 46.5548 110.721 45.5166 108.573 45.5166C107.629 45.5166 106.265 45.8761 106.265 47.2147C106.265 50.3704 112.386 48.0132 112.386 52.1481C112.386 54.186 110.761 54.9648 108.753 54.9648C106.605 54.9648 105.301 53.7264 105.12 52.3081Z" fill="#19213B"/>
<path d="M120.374 54.3049V53.6459C119.771 54.5043 118.868 54.9648 117.564 54.9648C115.375 54.9648 113.89 53.366 113.89 50.3301V49.1319C113.89 46.1551 115.315 44.5777 117.564 44.5777C118.949 44.5777 119.792 45.0972 120.374 45.8957V41.262C120.374 40.9821 120.575 40.7817 120.836 40.7817H122.06C122.321 40.7817 122.522 40.9821 122.522 41.262V54.3049C122.522 54.5651 122.321 54.7645 122.06 54.7645H120.836C120.575 54.7645 120.374 54.5651 120.374 54.3049ZM120.374 50.669V48.8323C120.374 47.4534 119.611 46.4153 118.206 46.4153C116.761 46.4153 116.038 47.4731 116.038 48.8923V50.669C116.038 52.0882 116.761 53.1263 118.186 53.1263C119.631 53.1263 120.374 52.0882 120.374 50.669Z" fill="#19213B"/>
<path d="M124.767 54.304V45.2555C124.767 44.9756 124.968 44.7762 125.229 44.7762H126.334C126.594 44.7762 126.815 44.9756 126.815 45.2555V46.275C127.296 45.4353 128.18 44.7762 129.485 44.7762H129.746C130.006 44.7762 130.207 44.9756 130.207 45.2555V46.4538C130.207 46.714 130.006 46.9134 129.746 46.9134H129.445C127.779 46.9134 126.895 47.9122 126.895 49.7901V54.304C126.895 54.5643 126.694 54.7637 126.414 54.7637H125.229C124.968 54.7637 124.767 54.5643 124.767 54.304Z" fill="#19213B"/>
<path d="M135.465 44.5777C137.874 44.5777 139.78 46.3357 139.78 49.1319V50.4303C139.78 53.2265 137.874 54.9648 135.465 54.9648C133.035 54.9648 131.149 53.2265 131.149 50.4303V49.1319C131.149 46.3357 133.035 44.5777 135.465 44.5777ZM135.465 53.1263C136.71 53.1263 137.613 52.2679 137.613 50.6699V48.8717C137.613 47.2737 136.71 46.4153 135.465 46.4153C134.22 46.4153 133.297 47.2737 133.297 48.8717V50.6699C133.297 52.2679 134.22 53.1263 135.465 53.1263Z" fill="#19213B"/>
<path d="M144.014 41.9614C144.014 42.7206 143.472 43.2598 142.69 43.2598C141.926 43.2598 141.384 42.7206 141.384 41.9614C141.384 41.2022 141.926 40.663 142.69 40.663C143.472 40.663 144.014 41.2022 144.014 41.9614ZM141.625 54.306V45.2575C141.625 44.9776 141.826 44.7782 142.088 44.7782H143.311C143.573 44.7782 143.773 44.9776 143.773 45.2575V54.306C143.773 54.5662 143.573 54.7656 143.311 54.7656H142.088C141.826 54.7656 141.625 54.5662 141.625 54.306Z" fill="#19213B"/>
<path d="M146.562 51.5678V46.6738H145.178C144.917 46.6738 144.716 46.4744 144.716 46.2141V45.2555C144.716 44.9756 144.917 44.7762 145.178 44.7762C146.161 44.7762 146.583 44.5563 146.583 43.5181V42.6588C146.583 42.3789 146.784 42.1795 147.044 42.1795H148.209C148.469 42.1795 148.69 42.3789 148.69 42.6588V44.7762H150.718C150.979 44.7762 151.18 44.9756 151.18 45.2555V46.2141C151.18 46.4744 150.979 46.6738 150.718 46.6738H148.69V51.2476C148.69 52.3859 148.831 52.8063 150.015 52.8063H150.718C150.979 52.8063 151.18 53.0253 151.18 53.2855V54.304C151.18 54.5643 150.979 54.7637 150.718 54.7637H149.654C147.245 54.7637 146.562 53.6254 146.562 51.5678Z" fill="#19213B"/>
<path d="M152.021 52.1883C152.001 52.1088 151.981 51.9889 152.001 51.9094C152.001 51.709 152.142 51.5892 152.343 51.5892H153.587C153.808 51.5892 153.908 51.709 153.968 51.8888C154.109 52.428 154.55 53.2265 155.996 53.2265C157.14 53.2265 157.862 52.8679 157.862 51.9693C157.862 49.8911 152.162 51.5696 152.162 47.4946C152.162 45.4371 153.948 44.5786 155.955 44.5786C158.425 44.5786 159.388 46.0764 159.71 47.2344C159.73 47.2943 159.749 47.4141 159.749 47.5143C159.73 47.7137 159.588 47.8541 159.388 47.8541H158.144C157.903 47.8541 157.842 47.7539 157.762 47.534C157.561 46.9751 157.22 46.3161 155.875 46.3161C155.013 46.3161 154.229 46.5754 154.229 47.3945C154.229 49.5915 159.91 47.914 159.91 51.9094C159.91 54.1663 158.063 54.9648 155.975 54.9648C153.527 54.9648 152.242 53.527 152.021 52.1883Z" fill="#19213B"/>
<path d="M83.9402 0.000843048H78.0032C77.9204 0.000843048 77.8386 0.0139503 77.7567 0.0242462V1.91239C87.0352 2.38794 90.2864 7.10971 90.2864 19.0115C90.2864 30.9161 87.0738 34.7617 77.7567 35.1398V37.0158C77.8386 37.0261 77.9157 37.043 78.0032 37.043H83.9402C95.8095 37.043 100.749 33.115 100.749 19.0115C100.749 4.9089 95.7569 0.000843048 83.9402 0.000843048Z" fill="#0081C9"/>
<path d="M72.3414 35.1389C71.4552 35.1389 70.6114 34.4593 70.6114 33.4698V18.3281H70.5982V3.59928C70.5982 2.60887 71.443 1.93018 72.3282 1.93018H75.714V0.026123C74.4298 0.0345497 70.1768 0.0616951 67.1344 0.0616951H61.1946C60.203 0.0616951 59.2576 0.820885 59.2576 1.93112V18.741H59.2698V35.138C59.2698 36.2482 60.2152 37.0074 61.2068 37.0074H67.1476C70.189 37.0074 74.443 37.0345 75.7271 37.043V35.1389H72.3414Z" fill="#0081C9"/>
</g>
<defs>
<clipPath id="clip0_849_1378">
<rect width="160" height="67" fill="white"/>
</clipPath>
</defs>
</svg>
