<svg fill="#3a2a27" xmlns="http://www.w3.org/2000/svg" viewBox="0 0 715.04 254.5">
  <path d="m353.77,28.76c-19.77,0-38.37,5.12-54.55,14.08V0h-59.78v226.63h40.15c19.85,17.35,45.81,27.87,74.18,27.87,62.24,0,112.88-50.64,112.88-112.88s-50.64-112.88-112.88-112.88v.02Zm0,164.28c-28.34,0-51.4-23.06-51.4-51.4s23.06-51.4,51.4-51.4,51.4,23.06,51.4,51.4-23.06,51.4-51.4,51.4Z"/>
  <rect x="150.99" y="0" width="59.78" height="226.63"/>
  <polygon points="59.79 0 0 0 0 226.64 59.79 226.64 59.79 159.17 60.71 159.17 122.18 99.39 59.79 99.39 59.79 0"/>
  <polygon points="714.5 28.65 654.72 28.65 654.72 86.06 714.5 145.53 714.5 28.65"/>
  <polygon points="554.29 26.15 494.51 26.15 494.51 226.05 554.29 226.05 554.29 110.78 672.85 229.05 715.04 229.05 715.04 186.86 554.29 26.15"/>
</svg>