<svg xmlns="http://www.w3.org/2000/svg" viewBox="0 0 1000 1000">
  <rect fill="#f43f5e" width="1000" height="1000"/>
  <path fill="#fff" d="M1040,465.2c-2.5-32.9-6.9-71.2-13.4-114.6-70.3,20.3-128.6,35.3-174.9,44.9,23.9-36.7,64.5-106.4,121.6-209.1-47.6-8.7-93.9-15.1-138.6-19.4-35.7,65-73.8,133.1-113.8,204-7.1-36.9-20.8-70-41.4-99.3-32-45.6-72.7-67.8-122.1-66.7-51.3.8-93.6,25.1-127,73-33.5,47.8-50.3,103.9-50.7,168.2v4.4c-13.8-3.8-28.4-5.5-43.7-5.2,46.9-60.9,61-115.6,42.4-163.9-61-122.9-200.6-115.5-418.5,22.1,51.5,238,91,431.1,118.4,579.3,220.6-61.5,353.9-133.7,399.7-216.8,17.5,8.3,37.2,12.3,59,12,50.3-.9,94.4-25.3,132.3-73.2,16.2-20.5,28.9-42.6,38.2-66.1,33.4-7.1,71.8-16.3,115.3-27.4,1.9,22.6,6.6,68.3,13.6,136.9,56.3-20.7,100.7-33.6,133.1-38.8-6.8-36.6-12.4-78.1-17-124.2l87.3-20.2h.1ZM170.3,488.1c-7-32.2-15.4-71-25.3-116.2,48.7-27.8,74.4-20,77.1,23.2,2.1,38.6-15.2,69.7-51.9,93h.1ZM212.9,691.6c-4.9-24.3-11-54.1-18.5-89.5,66.5-34.1,103.6-40.1,111.2-17.7,18.4,43.4-12.5,79.1-92.8,107.1h0ZM608.6,515.6c-14,27.3-33.3,43.4-57.9,48.2-28.3,1.9-45.1-35.1-50.4-111.2.6-58.2,18.7-94.8,54.1-109.7,2.2-.4,4.4-.4,6.6.2,25.8,9.8,44,35.2,54.3,76.2,6.9,38.9,4.6,71-6.8,96.2h.1Z"/>
</svg>