<svg xmlns="http://www.w3.org/2000/svg" viewBox="0 0 100 100">
  <path fill="#0065a9" d="M96.5,10.8L75.9.9c-2.4-1.1-5.2-.7-7.1,1.2L1.3,63.6c-1.7,1.6-1.8,4.2-.3,5.9,0,0,.2.2.3.3l5.5,5c1.5,1.3,3.7,1.4,5.3.2L93.4,13.4c2.7-2.1,6.6-.1,6.6,3.3v-.2c0-2.4-1.4-4.6-3.5-5.6h0Z"/>
  <path fill="#007acc" d="M96.5,89.2l-20.6,9.9c-2.4,1.1-5.2.7-7.1-1.2L1.3,36.4c-1.7-1.6-1.8-4.2-.3-5.9,0,0,.2-.2.3-.3l5.5-5c1.5-1.3,3.7-1.4,5.3-.2l81.2,61.6c2.7,2.1,6.6.1,6.6-3.3v.2c0,2.4-1.4,4.6-3.5,5.6h0Z"/>
  <path fill="#1f9cf0" d="M75.9,99.1c-2.4,1.1-5.2.7-7.1-1.2,2.3,2.3,6.2.7,6.2-2.6V4.7c0-3.3-3.9-4.9-6.2-2.6,1.9-1.9,4.7-2.4,7.1-1.2l20.6,9.9c2.2,1,3.5,3.2,3.5,5.6v67.2c0,2.4-1.4,4.6-3.5,5.6,0,0-20.6,9.9-20.6,9.9Z"/>
</svg>