<svg xmlns="http://www.w3.org/2000/svg" viewBox="0 0 144 36">
  <path
    d="M55.634,9.879h4.03v16.242h-4.03l-.181-2.014c-.451.726-1.049,1.313-1.792,1.762-.743.45-1.621.674-2.634.674-1.222,0-2.368-.227-3.435-.682-1.068-.455-2.006-1.083-2.815-1.884-.809-.801-1.442-1.727-1.899-2.777-.457-1.05-.685-2.176-.685-3.378s.217-2.247.652-3.265c.435-1.018,1.043-1.911,1.825-2.68.782-.769,1.684-1.369,2.708-1.802,1.024-.433,2.124-.65,3.303-.65,1.09,0,2.067.238,2.932.715.864.477,1.599,1.083,2.205,1.819l-.182-2.079h0ZM50.928,22.726c.859,0,1.618-.211,2.279-.633.66-.422,1.178-.993,1.553-1.714.374-.72.561-1.513.561-2.38s-.187-1.675-.561-2.396c-.375-.72-.895-1.292-1.561-1.714-.666-.422-1.423-.633-2.271-.633s-1.621.214-2.32.641c-.699.428-1.255.999-1.668,1.714-.413.714-.619,1.511-.619,2.387s.209,1.673.627,2.387c.418.715.977,1.283,1.676,1.706.699.422,1.467.633,2.304.633h0ZM71.817,13.842h-3.204v12.279h-4.03v-12.279h-2.444v-3.963h2.444v-5.1h4.03v5.1h3.204v3.963ZM81.693,26.543c-1.519,0-2.904-.385-4.153-1.153-1.25-.769-2.246-1.802-2.989-3.102-.743-1.299-1.115-2.734-1.115-4.304,0-1.18.215-2.287.644-3.321.429-1.034,1.021-1.944,1.775-2.729.754-.785,1.632-1.399,2.634-1.843,1.002-.444,2.07-.666,3.204-.666,1.288,0,2.469.268,3.542.804,1.074.536,1.985,1.27,2.733,2.201.749.931,1.294,1.992,1.635,3.184.341,1.191.418,2.436.231,3.735h-12.071c.154.606.407,1.151.76,1.632.352.482.798.866,1.338,1.153.539.287,1.15.436,1.833.447.704.011,1.346-.155,1.924-.495.578-.341,1.06-.804,1.445-1.389l4.112.942c-.671,1.44-1.673,2.618-3.006,3.533-1.332.915-2.824,1.373-4.475,1.373h0ZM77.63,16.375h8.125c-.121-.65-.377-1.236-.767-1.762-.391-.525-.873-.944-1.445-1.258-.573-.314-1.189-.471-1.85-.471s-1.272.155-1.833.463c-.562.309-1.038.726-1.429,1.251-.391.525-.658,1.118-.801,1.778h0ZM102.814,21.231l3.633,1.933c-.76,1.018-1.712,1.836-2.856,2.453-1.146.617-2.395.926-3.749.926-1.519,0-2.904-.385-4.153-1.153-1.25-.769-2.246-1.8-2.989-3.094-.743-1.294-1.115-2.726-1.115-4.296,0-1.191.215-2.303.644-3.338.429-1.034,1.021-1.944,1.775-2.729.754-.785,1.632-1.399,2.634-1.843,1.002-.444,2.07-.666,3.204-.666,1.355,0,2.604.309,3.749.926,1.145.617,2.097,1.446,2.857,2.485l-3.634,1.916c-.385-.433-.839-.769-1.362-1.007-.523-.238-1.059-.358-1.61-.358-.793,0-1.508.214-2.146.642-.639.428-1.146.99-1.52,1.689-.374.699-.561,1.459-.561,2.282s.187,1.568.561,2.266c.374.698.881,1.258,1.52,1.681.638.422,1.354.634,2.146.634.573,0,1.118-.122,1.635-.366.518-.243.963-.571,1.337-.983h0ZM124.546,15.855v10.265h-4.029v-9.226c0-.639-.16-1.221-.479-1.746-.32-.525-.746-.942-1.28-1.251-.534-.309-1.126-.463-1.775-.463s-1.242.154-1.775.463c-.535.309-.958.726-1.272,1.251-.314.525-.471,1.107-.471,1.746v9.226h-4.029l-.017-16.242h4.03l.016,1.446c.562-.585,1.233-1.048,2.015-1.389.782-.341,1.624-.512,2.527-.512,1.199,0,2.295.29,3.286.869.991.579,1.781,1.354,2.37,2.323.589.969.884,2.049.884,3.24h0ZM139.97,9.879h4.03v16.242h-4.03l-.181-2.014c-.451.726-1.049,1.313-1.792,1.762-.743.45-1.621.674-2.634.674-1.222,0-2.367-.227-3.435-.682-1.068-.455-2.006-1.083-2.815-1.884-.809-.801-1.442-1.727-1.899-2.777-.457-1.05-.686-2.176-.686-3.378s.218-2.247.652-3.265c.435-1.018,1.043-1.911,1.825-2.68.782-.769,1.685-1.369,2.709-1.802,1.023-.433,2.124-.65,3.302-.65,1.09,0,2.067.238,2.932.715.864.477,1.599,1.083,2.204,1.819l-.181-2.079h0ZM135.264,22.726c.859,0,1.619-.211,2.279-.633.66-.422,1.178-.993,1.552-1.714.375-.72.562-1.513.562-2.38s-.187-1.675-.562-2.396c-.374-.72-.894-1.292-1.56-1.714-.666-.422-1.423-.633-2.27-.633s-1.622.214-2.321.641c-.699.428-1.255.999-1.668,1.714-.413.714-.619,1.511-.619,2.387s.209,1.673.628,2.387c.418.715.976,1.283,1.676,1.706.699.422,1.466.633,2.303.633h0Z"
    fill="#2d2d2e" />
  <path
    d="M36.603,18c-.013,7.073-.698,12-3.435,14.629-2.666,2.685-7.676,3.359-14.867,3.371-7.191-.013-12.201-.687-14.874-3.378C.698,30,.013,25.072,0,18,.013,10.927.698,5.999,3.434,3.371,6.101.686,11.111.013,18.302,0c7.191.013,12.201.687,14.874,3.378,2.73,2.622,3.415,7.55,3.428,14.622Z"
    fill="#f36858" />
  <path
    d="M29.539,20.863c-.627-.406-1.469-.235-1.881.382-.837,1.251-2.306,2.128-3.93,2.348-1.178.159-2.333-.036-3.24-.527,1.071-1.033,1.822-2.186,2.186-3.363.639-2.06.635-3.484-.011-4.48-.418-.646-1.072-1.047-1.892-1.162-1.619-.227-3.573.949-4.291,4.086-.178.778-.348,1.977-.142,3.267.067.417.169.81.305,1.178-.489.277-.984.507-1.454.68-1.609.591-3.065.489-4.213-.295-1.114-.761-1.807-2.103-1.807-3.502,0-3.967,3.59-6.406,4.69-7.06,2.033-1.206,5.658-1.71,7.611-.505.635.392,1.474.204,1.872-.421.398-.625.207-1.449-.428-1.842-1.365-.843-3.26-1.218-5.336-1.057-1.852.144-3.719.704-5.122,1.537-1.104.655-2.691,1.799-3.981,3.523-1.342,1.793-2.022,3.752-2.022,5.825,0,2.261,1.14,4.444,2.974,5.697,1.118.764,2.412,1.149,3.79,1.149h0c.944,0,1.929-.18,2.922-.545.707-.26,1.414-.599,2.084-.997,1.552,1.228,3.672,1.759,5.876,1.461,2.424-.327,4.549-1.612,5.83-3.526.413-.616.239-1.445-.388-1.85ZM20.076,18.922c-.201.648-.587,1.261-1.084,1.819-.068-.659-.008-1.373.138-2.009.362-1.583,1.053-2.029,1.245-2.029h0s.01,0,.014.001h.001c.049.16.143.739-.315,2.218ZM28.797,22.899c-.519,0-.94-.414-.94-.925s.421-.925.94-.925.94.414.94.925-.421.925-.94.925Z"
    fill="#fff" />
</svg>