<svg xmlns="http://www.w3.org/2000/svg" viewBox="0 0 36.603 36">
  <path
    d="M36.603,18c-.013,7.073-.698,12-3.435,14.629-2.666,2.685-7.676,3.359-14.867,3.371-7.191-.013-12.201-.687-14.874-3.378C.698,30,.013,25.072,0,18,.013,10.927.698,5.999,3.434,3.371,6.101.686,11.111.013,18.302,0c7.191.013,12.201.687,14.874,3.378,2.73,2.622,3.415,7.55,3.428,14.622Z"
    fill="#f36858" />
  <path
    d="M29.539,20.863c-.627-.406-1.469-.235-1.881.382-.837,1.251-2.306,2.128-3.93,2.348-1.178.159-2.333-.036-3.24-.527,1.071-1.033,1.822-2.186,2.186-3.363.639-2.06.635-3.484-.011-4.48-.418-.646-1.072-1.047-1.892-1.162-1.619-.227-3.573.949-4.291,4.086-.178.778-.348,1.977-.142,3.267.067.417.169.81.305,1.178-.489.277-.984.507-1.454.68-1.609.591-3.065.489-4.213-.295-1.114-.761-1.807-2.103-1.807-3.502,0-3.967,3.59-6.406,4.69-7.06,2.033-1.206,5.658-1.71,7.611-.505.635.392,1.474.204,1.872-.421.398-.625.207-1.449-.428-1.842-1.365-.843-3.26-1.218-5.336-1.057-1.852.144-3.719.704-5.122,1.537-1.104.655-2.691,1.799-3.981,3.523-1.342,1.793-2.022,3.752-2.022,5.825,0,2.261,1.14,4.444,2.974,5.697,1.118.764,2.412,1.149,3.79,1.149h0c.944,0,1.929-.18,2.922-.545.707-.26,1.414-.599,2.084-.997,1.552,1.228,3.672,1.759,5.876,1.461,2.424-.327,4.549-1.612,5.83-3.526.413-.616.239-1.445-.388-1.85ZM20.076,18.922c-.201.648-.587,1.261-1.084,1.819-.068-.659-.008-1.373.138-2.009.362-1.583,1.053-2.029,1.245-2.029h0s.01,0,.014.001h.001c.049.16.143.739-.315,2.218ZM28.797,22.899c-.519,0-.94-.414-.94-.925s.421-.925.94-.925.94.414.94.925-.421.925-.94.925Z"
    fill="#fff" />
</svg>